<svg xmlns="http://www.w3.org/2000/svg" viewBox="0 0 333 333"><defs><style>.cls-1,.cls-2{fill:#eaae54;}.cls-1{fill-opacity:0.21;}.cls-3{fill:#d4eaf2;}.cls-4{fill:#0a0a0a;}</style></defs><g id="Layer_2" data-name="Layer 2"><g id="Layer_1-2" data-name="Layer 1"><circle class="cls-1" cx="166.5" cy="166.5" r="166.5"/><circle class="cls-2" cx="166.5" cy="166.5" r="140.5"/><path class="cls-3" d="M45.65,166.5A120.85,120.85,0,1,1,166.5,287.35,120.85,120.85,0,0,1,45.65,166.5Z"/><path class="cls-4" d="M127.87,179.52a20.59,20.59,0,0,0-9-2.09,20.87,20.87,0,1,0,17.34,32.46l19.72,9.87a20.86,20.86,0,1,0,37.61-7l27.71-29a20.87,20.87,0,1,0-.37-33.21L192.7,122.38a20.88,20.88,0,1,0-36.81-8.16L137.39,121a20.86,20.86,0,1,0-10.2,28.63l9.6,16.16Zm-9,34.43a15.65,15.65,0,1,1,15.65-15.65A15.67,15.67,0,0,1,118.84,214Zm19.66-8.73a20.7,20.7,0,0,0-6.24-22.88l7.5-11.59,22.62,38.07a21,21,0,0,0-4.68,6Zm37.73-74.75a20.74,20.74,0,0,0,12.78-4.4l28.15,28.15a20.78,20.78,0,0,0-3.68,7.41l-16.39-2.26c0-.07,0-.13,0-.2a20.86,20.86,0,0,0-38.21-11.59L155.78,146l11.42-17.64a20.56,20.56,0,0,0,9,2.09Zm2.61,73.23V179.86a20.91,20.91,0,0,0,17.54-15.32l16.38,2.25c0,.07,0,.14,0,.2a20.71,20.71,0,0,0,4.69,13.15L190,208.78A20.71,20.71,0,0,0,178.84,203.7Zm-2.61-60.19a15.66,15.66,0,1,1-15.65,15.66A15.68,15.68,0,0,1,176.23,143.51Zm-19.67,8.74a20.8,20.8,0,0,0,17.06,27.61V203.7a20.61,20.61,0,0,0-6.93,2.15l-23.76-40,10-15.43ZM176.23,240a15.65,15.65,0,1,1,15.65-15.65A15.67,15.67,0,0,1,176.23,240Zm57.4-88.7A15.66,15.66,0,1,1,218,167,15.67,15.67,0,0,1,233.63,151.34ZM176.23,94a15.65,15.65,0,1,1-15.65,15.65A15.67,15.67,0,0,1,176.23,94Zm-18.55,25.16a20.92,20.92,0,0,0,5.13,6.45l-11.73,18.11-12.58-6.28a20.63,20.63,0,0,0,1.21-6.92,21.15,21.15,0,0,0-.53-4.61Zm-54.5,11.36a15.66,15.66,0,1,1,15.66,15.65A15.67,15.67,0,0,1,103.18,130.47Zm28.48,16.43a20.8,20.8,0,0,0,4.52-4.84l12,6L140,160.86Z"/></g></g></svg>