<svg xmlns="http://www.w3.org/2000/svg" viewBox="0 0 333 333"><defs><style>.cls-1,.cls-2{fill:#eaae54;}.cls-1{fill-opacity:0.21;}.cls-3{fill:#d4eaf2;}.cls-4{fill:#0a0a0a;}</style></defs><g id="Layer_2" data-name="Layer 2"><g id="Layer_1-2" data-name="Layer 1"><circle class="cls-1" cx="166.5" cy="166.5" r="166.5"/><circle class="cls-2" cx="166.5" cy="166.5" r="140.5"/><path class="cls-3" d="M45.65,166.5A120.85,120.85,0,1,1,166.5,287.35,120.85,120.85,0,0,1,45.65,166.5Z"/><g id="Page-1"><g id="_026---Idea" data-name="026---Idea"><path id="Shape" class="cls-4" d="M236.65,158.78a5.59,5.59,0,0,0-5.47-4.52h-5.37l-.4-2.36a5.57,5.57,0,0,0-4.65-4.61c-.52-.09-1.06-.14-1.58-.22a17,17,0,0,0-2.12-12.4,11.39,11.39,0,0,0-8.25-15.24,23.68,23.68,0,0,0-23.13-19.33c-.28,0-.53,0-.79.05A11.32,11.32,0,0,0,167.57,98a19.06,19.06,0,0,0-10.39-3.08A19.29,19.29,0,0,0,142,102.39a13.86,13.86,0,0,0-17.71,12.45,11.46,11.46,0,0,0-7,10.56,11.2,11.2,0,0,0,.28,2.37,22.38,22.38,0,0,0-2.67,19.2l-2.23.3a5.59,5.59,0,0,0-4.68,4.61l-.4,2.38h-5.38a5.55,5.55,0,0,0-5.46,4.5L84.53,221.32a8.35,8.35,0,0,0,8.21,9.94h58c2.31,3.8,9.31,5.57,15.91,5.57s13.46-1.72,15.84-5.57h58.1a8.35,8.35,0,0,0,8.21-9.93Zm-111-28.35a5.87,5.87,0,0,1,3-10.91,5.74,5.74,0,0,1,4.67,2.36,2.78,2.78,0,1,0,4.47-3.32,11.25,11.25,0,0,0-7.89-4.45,8.46,8.46,0,0,1,8.25-6.7c.34,0,.68.06,1,.11a17.74,17.74,0,0,0-.58,1.74,2.79,2.79,0,0,0,5.39,1.4,13.32,13.32,0,0,1,1.44-3.49,13.77,13.77,0,0,1,11.74-6.7,13.6,13.6,0,0,1,7.37,2.23,11,11,0,0,0-.65,3.65,2.78,2.78,0,1,0,5.56,0,5.86,5.86,0,1,1,11.71,0,2.78,2.78,0,1,0,5.56,0c0-.22,0-.42-.06-.63a18.05,18.05,0,0,1,16.48,13.93,11,11,0,0,0-3.6,1.79,2.78,2.78,0,1,0,3.34,4.45,5.87,5.87,0,1,1,6,10,2.78,2.78,0,0,0-1.51,3.11,2.81,2.81,0,0,0,2.69,2.18,2.68,2.68,0,0,0,1.18-.27,10.66,10.66,0,0,0,2.08-1.3A11.88,11.88,0,0,1,211,151.51l-.07.07a12,12,0,0,1-14.19,2.61,11.71,11.71,0,0,1-1.35-.84,9.51,9.51,0,0,0,.74-9.8,2.79,2.79,0,0,0-5,2.51,4.13,4.13,0,0,1-7.38,3.7,2.79,2.79,0,0,0-2.33-1.53,2.78,2.78,0,0,0-2.65,4,9.64,9.64,0,0,0,8.67,5.36,9.47,9.47,0,0,0,3.49-.68,16.75,16.75,0,0,0,3.26,2.22A17.11,17.11,0,0,0,207,160.34a17.74,17.74,0,0,1-11.46,7,2.78,2.78,0,0,0,.44,5.53,2.25,2.25,0,0,0,.44,0,22.3,22.3,0,0,0,4.93-1.44,24.71,24.71,0,0,1,2.08,4.78,2.73,2.73,0,0,1,.14.9,3,3,0,0,1-1.82,2.76,3.16,3.16,0,0,1-3.59-1,17.82,17.82,0,0,0-8.15-5.41c-6-2-8.33-3.81-9.32-5.77a27,27,0,0,0,4.27-.89,2.78,2.78,0,0,0,1.07-4.7,2.75,2.75,0,0,0-2.71-.62,21.15,21.15,0,0,1-4.8.88,20.72,20.72,0,0,1-9.22-1.39,2.79,2.79,0,0,0-3.12.77A11.92,11.92,0,0,1,147,147.83a2.79,2.79,0,0,0-4.79-2.87,17.37,17.37,0,0,0-1.59,3.58,4.17,4.17,0,0,1-4-4.1v-.07a2.73,2.73,0,0,0-2.78-2.74,2.81,2.81,0,0,0-2.78,2.81,9.67,9.67,0,0,0,8.64,9.6,17.33,17.33,0,0,0,.25,2.79,17,17,0,0,1-19.24-23.29,11.72,11.72,0,0,0,2.07,1.65,2.79,2.79,0,0,0,2.88-4.77Zm-12.25,22.36c1.28-.19,2.61-.36,3.92-.53a22.49,22.49,0,0,0,24.41,9.9,17.43,17.43,0,0,0,27.3,4.63,27.26,27.26,0,0,0,5.81,1.05c1.35,5.1,5.23,8.19,13.39,10.92a12.38,12.38,0,0,1,5.67,3.73,8.86,8.86,0,0,0,6.72,3.16A8.46,8.46,0,0,0,204,185a8.56,8.56,0,0,0,5.2-7.88,8.09,8.09,0,0,0-.42-2.63,30,30,0,0,0-2.46-5.67,23.46,23.46,0,0,0,9.25-14.14,16.87,16.87,0,0,0,1.6-2.24c.93.12,1.87.22,2.8.38L230,213.22a95.62,95.62,0,0,0-60.51,0V178.39a2.78,2.78,0,0,0-5.56,0v34.85a95.55,95.55,0,0,0-60.51,0ZM90.57,224.67a2.75,2.75,0,0,1-.58-2.28l12.19-62.56h4.45L97.9,212.31a5.58,5.58,0,0,0,7.18,6.22,93.07,93.07,0,0,1,46-2.92l-.83,10.09H92.74A2.82,2.82,0,0,1,90.57,224.67Zm76.11,6.59c-6.7,0-10.55-2-11.12-2.86l1-11.55a60,60,0,0,1,9,3,2.75,2.75,0,0,0,1.2.28,2.61,2.61,0,0,0,1.2-.28,60.12,60.12,0,0,1,9-3l.95,11.57c-.56.88-4.41,2.86-11.11,2.86Zm76.1-6.59a2.79,2.79,0,0,1-2.16,1H183.16l-.84-10.11a93,93,0,0,1,46,2.94,5.58,5.58,0,0,0,7.16-6.23l-8.72-52.47h4.45l12.19,62.56a2.77,2.77,0,0,1-.6,2.28Z"/><path id="Shape-2" data-name="Shape" class="cls-4" d="M157.46,135.77a2.78,2.78,0,0,0-.2,3.93,16.7,16.7,0,0,0,8.92,5.14,8.3,8.3,0,0,1-6.78,3.5,2.78,2.78,0,1,0,0,5.56,13.79,13.79,0,0,0,13-8.92,16.79,16.79,0,0,0,13.74-13.36,2.81,2.81,0,0,0-.89-2.67,2.8,2.8,0,0,0-4.58,1.62,11.08,11.08,0,0,1-4.61,7.07A11.35,11.35,0,0,1,161.39,136a2.78,2.78,0,0,0-3.93-.2Z"/><path id="Shape-3" data-name="Shape" class="cls-4" d="M147.76,132.75a2.78,2.78,0,0,0,2.78-2.78,7.22,7.22,0,0,1,7.23-7.23,2.79,2.79,0,1,0,0-5.57A12.82,12.82,0,0,0,145,130a2.78,2.78,0,0,0,2.79,2.78Z"/><path id="Shape-4" data-name="Shape" class="cls-4" d="M169.46,78.21V75.43a2.78,2.78,0,0,0-5.56,0v2.78a2.78,2.78,0,1,0,5.56,0Z"/><path id="Shape-5" data-name="Shape" class="cls-4" d="M212.34,92.62l-2.78,2.78a2.78,2.78,0,1,0,3.94,3.93l2.78-2.78a2.78,2.78,0,0,0-1.23-4.69A2.77,2.77,0,0,0,212.34,92.62Z"/><path id="Shape-6" data-name="Shape" class="cls-4" d="M121.83,100.15a2.78,2.78,0,0,0,2-4.75L121,92.62a2.74,2.74,0,0,0-2.7-.76,2.77,2.77,0,0,0-2,2,2.8,2.8,0,0,0,.76,2.71l2.78,2.78A2.79,2.79,0,0,0,121.83,100.15Z"/><path id="Shape-7" data-name="Shape" class="cls-4" d="M143.25,88.44a2.76,2.76,0,0,0,2.57-1.72,2.72,2.72,0,0,0,0-2.13l-3.2-7.71A2.78,2.78,0,1,0,137.49,79l3.19,7.71a2.79,2.79,0,0,0,2.57,1.72Z"/><path id="Shape-8" data-name="Shape" class="cls-4" d="M194.37,75.37a2.79,2.79,0,0,0-3.64,1.51l-3.19,7.71a2.76,2.76,0,0,0,0,2.13A2.83,2.83,0,0,0,189,88.23a2.79,2.79,0,0,0,3.64-1.51L195.87,79a2.72,2.72,0,0,0,0-2.13A2.78,2.78,0,0,0,194.37,75.37Z"/><path id="Shape-9" data-name="Shape" class="cls-4" d="M223.24,121.57a2.75,2.75,0,0,0,1.06-.21l7.71-3.2a2.78,2.78,0,0,0-2.12-5.14l-7.72,3.2a2.78,2.78,0,0,0,1.07,5.35Z"/><path id="Shape-10" data-name="Shape" class="cls-4" d="M109.05,121.36a2.78,2.78,0,0,0,2.14-5.14l-7.72-3.2a2.78,2.78,0,0,0-2.13,5.14Z"/></g></g></g></g></svg>