<svg xmlns="http://www.w3.org/2000/svg" viewBox="0 0 333 333"><defs><style>.cls-1,.cls-2{fill:#eaae54;}.cls-1{fill-opacity:0.21;}.cls-3{fill:#d4eaf2;}.cls-4{fill:#0a0a0a;}</style></defs><g id="Layer_2" data-name="Layer 2"><g id="Layer_1-2" data-name="Layer 1"><circle class="cls-1" cx="166.5" cy="166.5" r="166.5"/><circle class="cls-2" cx="166.5" cy="166.5" r="140.5"/><path class="cls-3" d="M45.65,166.5A120.85,120.85,0,1,1,166.5,287.35,120.85,120.85,0,0,1,45.65,166.5Z"/><path class="cls-4" d="M136.82,148.49h-24a2.61,2.61,0,0,0-1.84.77l-9.67,9.67h-2a7.82,7.82,0,1,0,0,5.22h3.09a2.59,2.59,0,0,0,1.84-.77l9.67-9.67h22.88a7.75,7.75,0,0,0,12.5,3.24L160,162.86a7.83,7.83,0,1,0,15.4,0L186,157a7.8,7.8,0,1,0,7.76-13.19v-11.4A7.8,7.8,0,1,0,186,119.17l-10.63-5.92a7.6,7.6,0,0,0,.13-1.28A7.83,7.83,0,1,0,160,113.26l-10.63,5.91a7.75,7.75,0,0,0-12.5,3.24H113.94l-9.67-9.68a2.58,2.58,0,0,0-1.84-.76H99.34a7.83,7.83,0,1,0,0,5.22h2l9.67,9.67a2.6,2.6,0,0,0,1.84.76h24a7.84,7.84,0,0,0,4.74,4.74v3.09H99.34a7.83,7.83,0,1,0,0,5.22h42.22v3.09a7.79,7.79,0,0,0-4.74,4.73ZM92,164.15a2.61,2.61,0,1,1,2.61-2.61A2.61,2.61,0,0,1,92,164.15Zm0-47a2.61,2.61,0,1,1,2.61-2.61A2.61,2.61,0,0,1,92,117.19Zm0,23.48a2.61,2.61,0,1,1,2.61-2.61A2.61,2.61,0,0,1,92,140.67Zm52.18,13a2.61,2.61,0,1,1,2.61-2.61A2.61,2.61,0,0,1,144.17,153.71Zm5.15-22.85L160,136.77a7.83,7.83,0,0,0-.13,1.29,7.71,7.71,0,0,0,.13,1.28l-10.63,5.92a7.83,7.83,0,0,0-2.54-1.5v-11.4a7.83,7.83,0,0,0,2.54-1.5ZM186,145.26l-10.63-5.92a7.71,7.71,0,0,0,.13-1.28,7.83,7.83,0,0,0-.13-1.29L186,130.86a7.83,7.83,0,0,0,2.54,1.5v11.4A7.56,7.56,0,0,0,186,145.26Zm-34.11,4.56,10.63-5.92a7.86,7.86,0,0,0,2.54,1.51V156.8a7.68,7.68,0,0,0-2.54,1.51l-10.63-5.92a7.83,7.83,0,0,0,.13-1.29A7.71,7.71,0,0,0,151.87,149.82Zm15.78-14.37a2.61,2.61,0,1,1-2.61,2.61A2.61,2.61,0,0,1,167.65,135.45Zm2.61,10a7.68,7.68,0,0,0,2.54-1.51l10.63,5.92a7.71,7.71,0,0,0-.13,1.28,7.83,7.83,0,0,0,.13,1.29L172.8,158.3a7.83,7.83,0,0,0-2.54-1.5Zm13.17-19.11-10.63,5.92a7.68,7.68,0,0,0-2.54-1.51v-11.4a7.49,7.49,0,0,0,2.54-1.5l10.63,5.92a6.42,6.42,0,0,0,0,2.57ZM165,130.71a7.68,7.68,0,0,0-2.54,1.51l-10.63-5.92a6.42,6.42,0,0,0,0-2.57l10.63-5.92a7.68,7.68,0,0,0,2.54,1.51Zm2.61,36a2.61,2.61,0,1,1,2.61-2.61A2.62,2.62,0,0,1,167.65,166.76Zm23.48-13a2.61,2.61,0,1,1,2.61-2.61A2.61,2.61,0,0,1,191.13,153.71Zm0-31.3a2.61,2.61,0,1,1-2.61,2.6A2.61,2.61,0,0,1,191.13,122.41Zm-23.48-13A2.61,2.61,0,1,1,165,112,2.61,2.61,0,0,1,167.65,109.36Zm-23.48,13a2.61,2.61,0,1,1-2.61,2.6A2.61,2.61,0,0,1,144.17,122.41Z"/><path class="cls-4" d="M139,245h41.74a2.61,2.61,0,0,0,2.61-2.61V224.15h33.92a2.61,2.61,0,0,0,2.61-2.61v-31.3h18.26a2.62,2.62,0,0,0,2.49-3.39l-13-41.62A58.65,58.65,0,0,0,165.43,88.6a58.92,58.92,0,0,0-45.89,27.18l4.39,2.81A53.74,53.74,0,0,1,165.74,93.8,53.44,53.44,0,0,1,222.37,146a2.57,2.57,0,0,0,.37,1.25L234.54,185H217.22a2.61,2.61,0,0,0-2.61,2.61v10.43h-7.83a7.83,7.83,0,0,1-7.82-7.82h-5.22a13.06,13.06,0,0,0,13,13h7.83v15.65H180.69a2.61,2.61,0,0,0-2.61,2.61V239.8H141.56v-2.52c0-21.11-6.34-42.69-18.35-62.42a53.38,53.38,0,0,1-6-14l-5,1.34a58.57,58.57,0,0,0,6.55,15.37c11.51,18.91,17.59,39.55,17.59,59.7v5.13A2.61,2.61,0,0,0,139,245Z"/></g></g></svg>