<svg id="Layer_1" data-name="Layer 1" xmlns="http://www.w3.org/2000/svg" viewBox="0 0 333 333"><defs><style>.cls-1,.cls-2{fill:#eaae54;}.cls-1{fill-opacity:0.21;}.cls-3{fill:#d4eaf2;stroke:#000;stroke-width:2px;}</style></defs><circle class="cls-1" cx="166.5" cy="166.5" r="166.5"/><circle class="cls-2" cx="166.5" cy="166.5" r="140.5"/><path class="cls-3" d="M45.65,166.5A120.85,120.85,0,1,1,166.5,287.35,120.84,120.84,0,0,1,45.65,166.5Z"/><g id="surface1"><path d="M241.49,220.44H225V112.56h16.45a2.3,2.3,0,0,0,0-4.6H225V91.51a2.3,2.3,0,1,0-4.6,0V108H112.56V91.51a2.3,2.3,0,1,0-4.6,0V108H91.51a2.3,2.3,0,0,0,0,4.6H108v22.72a2.3,2.3,0,0,0,4.6,0V112.56H220.44V220.44H112.56V142.93a2.3,2.3,0,1,0-4.6,0v77.51H91.51a2.3,2.3,0,0,0,0,4.6H108v16.45a2.3,2.3,0,1,0,4.6,0V225H220.44v16.45a2.3,2.3,0,1,0,4.6,0V225h16.45a2.3,2.3,0,0,0,0-4.6Z"/><path d="M191.28,202.42a2.3,2.3,0,1,0,1.79,4.23,34.41,34.41,0,0,0-24.23-64.35l-15.69-11.4a2.31,2.31,0,0,0-2.7,0l-30.32,22a2.3,2.3,0,0,0-.83,2.57l11.58,35.64a2.3,2.3,0,0,0,2.18,1.59h17.18a34.39,34.39,0,0,0,29.44,16.62,36.17,36.17,0,0,0,4.77-.32,2.3,2.3,0,1,0-.63-4.55,30.1,30.1,0,0,1-4.14.28,29.79,29.79,0,0,1-23.92-12h14.78a2.3,2.3,0,0,0,2.19-1.59l11.58-35.64a2.29,2.29,0,0,0-.84-2.57l-9.86-7.17a29.82,29.82,0,0,1,17.67,56.66Zm-56.55-14.28-10.55-32.47L151.8,135.6l12.1,8.79A34.43,34.43,0,0,0,145.28,175a34.08,34.08,0,0,0,2.63,13.19Zm44.7-32.47-10.55,32.47H153a29.81,29.81,0,0,1,15.19-40.68Z"/></g></svg>