<svg id="Layer_1" data-name="Layer 1" xmlns="http://www.w3.org/2000/svg" viewBox="0 0 399.26 399.26"><defs><style>.cls-1{fill:#481380;}.cls-2{fill:#fff;}</style></defs><title>dark purple </title><circle class="cls-1" cx="199.63" cy="199.63" r="199.63"/><path class="cls-2" d="M321.64,488h18.63l14.14,38h.23l13.11-38h17.37L363,543.92H344.75Z" transform="translate(-299.56 -308.99)"/><path class="cls-2" d="M420.42,486.65c17.25,0,31.05,11.5,31.05,29.32s-13.8,29.33-31.05,29.33S389.37,533.8,389.37,516,403.17,486.65,420.42,486.65Zm0,43.47c8.63,0,13.8-5.75,13.8-14.15s-5.17-14.14-13.8-14.14-13.8,5.75-13.8,14.14S411.8,530.12,420.42,530.12Z" transform="translate(-299.56 -308.99)"/><path class="cls-2" d="M515.41,543.92H498.85v-7.59h-.23c-2.3,4.37-7.94,9-16.33,9-17.48,0-20.7-11.5-20.7-26.45V488h17.25V515.4c0,6.44.11,14.72,9,14.72s10.35-7,10.35-14.26V488h17.25Z" transform="translate(-299.56 -308.99)"/><path class="cls-2" d="M565.43,506.08a10.65,10.65,0,0,0-8.51-4.25c-8.62,0-13.8,5.75-13.8,14.14s5.18,14.15,13.8,14.15a11,11,0,0,0,8.51-4.26l11.39,12c-5.41,5.52-13.34,7.48-19.9,7.48-17.25,0-31-11.5-31-29.33s13.8-29.32,31-29.32c6.56,0,14.49,2,19.9,7.47Z" transform="translate(-299.56 -308.99)"/><path class="cls-2" d="M600.28,457v38.65h.23c1.61-4.37,7.24-9,15.64-9,17.48,0,20.7,11.5,20.7,26.45v30.82H619.6V516.55c0-6.44-.12-14.72-9-14.72s-10.35,7-10.35,14.26v27.83H583V457Z" transform="translate(-299.56 -308.99)"/><path class="cls-2" d="M660,523.45A10.58,10.58,0,1,1,649.38,534,10.55,10.55,0,0,1,660,523.45Z" transform="translate(-299.56 -308.99)"/></svg>